<svg width="124" height="40" viewBox="0 0 124 40" fill="none" xmlns="http://www.w3.org/2000/svg">
<rect width="124" height="40" rx="8" fill="white"/>
<path d="M27.2762 20.7056C27.2872 19.8551 27.5131 19.0212 27.9329 18.2815C28.3528 17.5417 28.9529 16.9202 29.6775 16.4747C29.2172 15.8173 28.61 15.2763 27.904 14.8946C27.198 14.513 26.4127 14.3012 25.6106 14.2761C23.8995 14.0965 22.2406 15.3 21.3686 15.3C20.4798 15.3 19.1373 14.2939 17.6916 14.3236C16.7565 14.3539 15.8452 14.6258 15.0464 15.1129C14.2476 15.6 13.5887 16.2858 13.1337 17.1033C11.163 20.5153 12.633 25.5298 14.5208 28.2878C15.4653 29.6384 16.5691 31.1469 18.0135 31.0934C19.4269 31.0348 19.9548 30.1922 21.6609 30.1922C23.3511 30.1922 23.8464 31.0934 25.3201 31.0594C26.8367 31.0348 27.7923 29.7029 28.7036 28.3396C29.3823 27.3773 29.9045 26.3138 30.2509 25.1884C29.3698 24.8157 28.6178 24.1919 28.0889 23.3947C27.5599 22.5976 27.2772 21.6623 27.2762 20.7056Z" fill="black"/>
<path d="M24.4927 12.4622C25.3197 11.4695 25.7271 10.1935 25.6284 8.90527C24.3651 9.03796 23.1981 9.64177 22.36 10.5964C21.9502 11.0628 21.6363 11.6053 21.4364 12.1931C21.2364 12.7808 21.1542 13.4022 21.1945 14.0217C21.8264 14.0282 22.4516 13.8912 23.0229 13.6211C23.5942 13.3509 24.0968 12.9547 24.4927 12.4622Z" fill="black"/>
<path d="M45.9676 21.4294H41.3294L40.2155 24.7183H38.2509L42.6442 12.55H44.6853L49.0786 24.7183H47.0805L45.9676 21.4294ZM41.8098 19.9117H45.4863L43.6739 14.5739H43.6231L41.8098 19.9117Z" fill="black"/>
<path d="M58.5667 20.283C58.5667 23.0399 57.0911 24.8112 54.8643 24.8112C54.3002 24.8407 53.7392 24.7107 53.2456 24.4362C52.7519 24.1617 52.3455 23.7537 52.0729 23.259H52.0308V27.6532H50.2098V15.8466H51.9724V17.3222H52.0059C52.291 16.8299 52.7043 16.424 53.2017 16.1478C53.6991 15.8716 54.2621 15.7355 54.8308 15.7538C57.0825 15.7538 58.5667 17.5337 58.5667 20.283ZM56.6949 20.283C56.6949 18.4868 55.7667 17.306 54.3504 17.306C52.9591 17.306 52.0232 18.5117 52.0232 20.283C52.0232 22.0705 52.9591 23.2676 54.3504 23.2676C55.7667 23.2676 56.6949 22.0954 56.6949 20.283Z" fill="black"/>
<path d="M68.3319 20.283C68.3319 23.0399 66.8558 24.8112 64.629 24.8112C64.0649 24.8407 63.504 24.7107 63.0103 24.4362C62.5166 24.1617 62.1102 23.7537 61.8377 23.259H61.7955V27.6532H59.9745V15.8466H61.7372V17.3222H61.7707C62.0558 16.8299 62.469 16.424 62.9664 16.1478C63.4639 15.8716 64.0268 15.7355 64.5955 15.7538C66.8472 15.7538 68.3319 17.5337 68.3319 20.283ZM66.4596 20.283C66.4596 18.4868 65.5314 17.306 64.1152 17.306C62.7238 17.306 61.7879 18.5117 61.7879 20.283C61.7879 22.0705 62.7238 23.2676 64.1152 23.2676C65.5314 23.2676 66.4596 22.0954 66.4596 20.283Z" fill="black"/>
<path d="M74.7849 21.3277C74.9199 22.5344 76.0921 23.3267 77.694 23.3267C79.2289 23.3267 80.3332 22.5344 80.3332 21.4463C80.3332 20.5018 79.6672 19.9363 78.0902 19.5487L76.5132 19.1688C74.2787 18.6291 73.2414 17.5842 73.2414 15.8885C73.2414 13.789 75.0711 12.3469 77.6682 12.3469C80.2404 12.3469 82.0031 13.789 82.0624 15.8885H80.2241C80.1141 14.6741 79.1103 13.9411 77.6433 13.9411C76.1763 13.9411 75.1725 14.6828 75.1725 15.7622C75.1725 16.6225 75.8136 17.1287 77.382 17.5162L78.7227 17.8454C81.2193 18.4358 82.2557 19.4387 82.2557 21.2186C82.2557 23.4951 80.4433 24.9209 77.559 24.9209C74.8605 24.9209 73.0385 23.5286 72.9208 21.3276L74.7849 21.3277Z" fill="black"/>
<path d="M86.1869 13.7473V15.8468H87.874V17.2889H86.1869V22.1798C86.1869 22.9396 86.5247 23.2937 87.2663 23.2937C87.4666 23.2902 87.6666 23.2761 87.8654 23.2515V24.685C87.5319 24.7473 87.193 24.7755 86.8539 24.7692C85.0577 24.7692 84.3572 24.0946 84.3572 22.374V17.2889H83.0673V15.8468H84.3572V13.7473H86.1869Z" fill="black"/>
<path d="M88.8505 20.283C88.8505 17.4916 90.4945 15.7375 93.0582 15.7375C95.6304 15.7375 97.2667 17.4916 97.2667 20.283C97.2667 23.082 95.639 24.8284 93.0582 24.8284C90.4783 24.8284 88.8505 23.082 88.8505 20.283ZM95.4113 20.283C95.4113 18.3681 94.5337 17.238 93.0582 17.238C91.5826 17.238 90.7051 18.3768 90.7051 20.283C90.7051 22.2054 91.5826 23.327 93.0582 23.327C94.5337 23.327 95.4113 22.2054 95.4113 20.283Z" fill="black"/>
<path d="M98.7684 15.8465H100.505V17.3566H100.547C100.665 16.885 100.941 16.4682 101.33 16.1763C101.718 15.8844 102.196 15.7352 102.681 15.7537C102.891 15.753 103.1 15.7758 103.305 15.8217V17.525C103.04 17.444 102.764 17.4069 102.487 17.4149C102.222 17.4042 101.959 17.4509 101.714 17.5517C101.469 17.6525 101.249 17.8051 101.069 17.999C100.888 18.1929 100.752 18.4236 100.67 18.6751C100.587 18.9266 100.559 19.193 100.589 19.4561V24.7182H98.7684V15.8465Z" fill="black"/>
<path d="M111.701 22.1126C111.456 23.7231 109.887 24.8284 107.881 24.8284C105.3 24.8284 103.698 23.0992 103.698 20.3251C103.698 17.5423 105.308 15.7375 107.804 15.7375C110.259 15.7375 111.802 17.4236 111.802 20.1136V20.7375H105.536V20.8475C105.507 21.174 105.548 21.503 105.656 21.8125C105.764 22.1219 105.937 22.4049 106.162 22.6426C106.388 22.8803 106.662 23.0672 106.965 23.191C107.269 23.3147 107.595 23.3725 107.923 23.3604C108.353 23.4008 108.785 23.3011 109.154 23.0763C109.523 22.8514 109.81 22.5135 109.972 22.1126H111.701ZM105.545 19.4648H109.98C109.996 19.1712 109.952 18.8774 109.849 18.6019C109.747 18.3263 109.588 18.075 109.384 17.8636C109.18 17.6522 108.934 17.4852 108.662 17.3732C108.39 17.2613 108.098 17.2069 107.804 17.2132C107.508 17.2114 107.214 17.2683 106.939 17.3808C106.665 17.4932 106.415 17.6589 106.205 17.8682C105.995 18.0776 105.829 18.3264 105.715 18.6004C105.602 18.8745 105.544 19.1682 105.545 19.4648Z" fill="black"/>
</svg>
