<svg width="124" height="40" viewBox="0 0 124 40" fill="none" xmlns="http://www.w3.org/2000/svg">
<rect width="124" height="40" rx="8" fill="white"/>
<path fill-rule="evenodd" clip-rule="evenodd" d="M25.8583 8.58301H15.8977C11.2058 8.58301 9.48932 10.3038 9.48932 15.0074V24.9929C9.48932 29.6965 11.2058 31.4172 15.8977 31.4172H25.8555C30.5474 31.4172 32.2667 29.6965 32.2667 24.9929V15.0074C32.2667 10.3038 30.5502 8.58301 25.8583 8.58301Z" fill="#C8102E"/>
<path d="M13.9987 20.0022H14.6022V22.9879H13.9987V21.7751H12.6345V22.9879H12.0296V20.0022H12.6345V21.2066H13.9987V20.0022ZM17.4036 21.7117C17.4036 22.1972 17.1636 22.4561 16.7271 22.4561C16.2878 22.4561 16.0464 22.1887 16.0464 21.6906V20.0037H15.4415V21.7103C15.4415 22.5503 15.9075 23.0315 16.7187 23.0315C17.5383 23.0315 18.0085 22.5405 18.0085 21.685V20.0008H17.405V21.7117H17.4036ZM24.386 22.0551L23.7095 20.0022H23.2169L22.5404 22.0551L21.8822 20.0037H21.2394L22.278 22.9879H22.7776L23.4555 21.0279L24.132 22.9879H24.6358L25.6716 20.0037H25.0457L24.386 22.0551ZM26.7551 21.7033H27.8541V21.1602H26.7551V20.5496H28.3509V20.0051H26.16V22.9865H28.4084V22.442H26.7551V21.7033ZM29.1284 22.9837H29.7249V20.0022H29.1284V22.9837ZM19.2015 22.3646L18.9306 22.9865H18.3131L19.6253 20.0022H20.1587L21.4653 22.9865H20.8324L20.5643 22.3646H19.2015ZM19.426 21.8271H20.3397L19.8822 20.7592L19.426 21.8271Z" fill="white"/>
<path d="M20.8772 16.2019C18.786 16.2019 17.0864 14.4966 17.0864 12.4002H17.6225C17.6225 14.1998 19.0836 15.6644 20.8786 15.6644C22.6737 15.6644 24.1347 14.1998 24.1347 12.4002H24.6709C24.6695 14.4966 22.9684 16.2019 20.8772 16.2019Z" fill="white"/>
<path d="M47.2421 21.1691H43.1004L42.087 23.9466H40.2667L44.3228 13.5728H46.0435L50.1922 23.9466H48.2779L47.2421 21.1691ZM43.6225 19.7593H46.7144L45.607 16.7878C45.4554 16.3769 45.3053 15.9239 45.1565 15.4272C45.0232 15.8662 44.8786 16.315 44.7214 16.7737L43.6225 19.7593Z" fill="black"/>
<path d="M51.0136 18.1137C51.0136 17.5411 50.994 16.9108 50.9561 16.2241H52.6122C52.674 16.5435 52.7161 16.8714 52.7413 17.2048C53.4262 16.4549 54.2122 16.0806 55.0978 16.0806C55.6115 16.0806 56.0887 16.2101 56.5252 16.4704C56.9631 16.7307 57.3167 17.1415 57.5862 17.7015C57.8557 18.2629 57.9904 18.9748 57.9904 19.8387C57.9904 20.7406 57.836 21.5116 57.5287 22.1518C57.2227 22.792 56.7918 23.276 56.2403 23.6053C55.6887 23.9345 55.0501 24.0991 54.3259 24.0991C53.8024 24.0991 53.2859 24.0105 52.7764 23.8346V27.0271L51.0122 27.1776V18.1137H51.0136ZM55.6522 22.0618C56.0115 21.5778 56.1911 20.8701 56.1911 19.9386C56.1911 19.0747 56.0424 18.4486 55.7448 18.0589C55.4473 17.6705 55.0515 17.475 54.5561 17.475C54.2136 17.475 53.8964 17.5566 53.6059 17.7184C53.3154 17.8802 53.0389 18.0983 52.7778 18.3698V22.5078C52.9533 22.5936 53.1582 22.6612 53.3912 22.7118C53.6241 22.7625 53.8557 22.7864 54.0845 22.7864C54.7708 22.7878 55.2929 22.5458 55.6522 22.0618Z" fill="black"/>
<path d="M59.1201 18.1137C59.1201 17.5411 59.1005 16.9108 59.0626 16.2241H60.7187C60.7804 16.5435 60.8225 16.8714 60.8478 17.2048C61.5327 16.4549 62.3187 16.0806 63.2043 16.0806C63.718 16.0806 64.1952 16.2101 64.6316 16.4704C65.0695 16.7307 65.4232 17.1415 65.6927 17.7015C65.9622 18.2629 66.0969 18.9748 66.0969 19.8387C66.0969 20.7406 65.9425 21.5116 65.6351 22.1518C65.3292 22.792 64.8983 23.276 64.3467 23.6053C63.7952 23.9345 63.1566 24.0991 62.4324 24.0991C61.9089 24.0991 61.3924 24.0105 60.8829 23.8346V27.0271L59.1187 27.1776V18.1137H59.1201ZM63.7587 22.0618C64.118 21.5778 64.2976 20.8701 64.2976 19.9386C64.2976 19.0747 64.1488 18.4486 63.8513 18.0589C63.5538 17.6705 63.158 17.475 62.6625 17.475C62.3201 17.475 62.0029 17.5566 61.7124 17.7184C61.4218 17.8802 61.1454 18.0983 60.8843 18.3698V22.5078C61.0597 22.5936 61.2646 22.6612 61.4976 22.7118C61.7306 22.7625 61.9622 22.7864 62.191 22.7864C62.8773 22.7878 63.3994 22.5458 63.7587 22.0618Z" fill="black"/>
<path d="M69.4243 23.4577C68.6622 23.0356 68.077 22.4306 67.6671 21.6427C67.2573 20.8548 67.0538 19.9247 67.0538 18.8512C67.0538 17.6862 67.2896 16.6971 67.7598 15.8838C68.2313 15.0706 68.8727 14.46 69.6854 14.0519C70.4966 13.6439 71.4075 13.4399 72.4166 13.4399C73.0117 13.4399 73.5787 13.506 74.119 13.6369C74.6594 13.7677 75.1632 13.9478 75.6292 14.1771L75.1787 15.5377C74.2411 15.0889 73.3457 14.8652 72.4938 14.8652C71.7752 14.8652 71.145 15.0185 70.6047 15.3267C70.0643 15.6348 69.6447 16.0864 69.3443 16.683C69.0454 17.2796 68.8938 18 68.8938 18.8456C68.8938 19.5857 69.0089 20.2413 69.2405 20.814C69.4706 21.3866 69.8355 21.8397 70.3324 22.1745C70.8292 22.5094 71.4566 22.6754 72.2145 22.6754C72.5569 22.6754 72.9008 22.6473 73.2432 22.5896C73.5857 22.5319 73.9071 22.4489 74.2074 22.3391V20.2413H71.8159V18.8667H75.9225V23.234C75.3316 23.5112 74.7113 23.7236 74.0629 23.8714C73.4131 24.0191 72.7674 24.0937 72.1232 24.0937C71.0861 24.0909 70.1864 23.8798 69.4243 23.4577Z" fill="black"/>
<path d="M82.2787 23.948C82.2169 23.6469 82.1762 23.3064 82.158 22.9237C81.8871 23.2487 81.5334 23.5245 81.0969 23.751C80.6618 23.9775 80.1706 24.0915 79.6218 24.0915C79.1783 24.0915 78.7755 24.0042 78.4106 23.8298C78.0471 23.6553 77.758 23.3936 77.5432 23.0419C77.3285 22.6915 77.2218 22.2624 77.2218 21.7573C77.2218 21.0073 77.4913 20.4108 78.0289 19.9633C78.5664 19.5173 79.4632 19.2936 80.7208 19.2936C81.1923 19.2936 81.6583 19.3274 82.1201 19.3935V19.243C82.1201 18.5606 81.9755 18.0794 81.6836 17.8008C81.393 17.5222 80.9776 17.3815 80.4345 17.3815C80.0583 17.3815 79.6555 17.4364 79.2274 17.5461C78.7994 17.6559 78.4232 17.7867 78.099 17.9401L77.8211 16.6513C78.1355 16.5078 78.5496 16.3769 79.0646 16.2573C79.5783 16.1377 80.1215 16.0786 80.6927 16.0786C81.3594 16.0786 81.925 16.1799 82.3923 16.3825C82.8583 16.5851 83.2232 16.9341 83.4843 17.4279C83.7467 17.9218 83.8772 18.5873 83.8772 19.4217V22.4931C83.8772 22.8125 83.8955 23.2979 83.9348 23.9466H82.2787V23.948ZM81.2218 22.5156C81.5881 22.3398 81.8885 22.1203 82.1215 21.8572V20.4248C81.6401 20.3728 81.2485 20.346 80.9425 20.346C80.2141 20.346 79.7103 20.4642 79.4324 20.7006C79.1545 20.937 79.0141 21.255 79.0141 21.656C79.0141 22.0373 79.1152 22.3215 79.3173 22.5044C79.5194 22.6887 79.7945 22.7802 80.1425 22.7802C80.4962 22.7802 80.8555 22.6915 81.2218 22.5156Z" fill="black"/>
<path d="M85.421 22.0935V12.9663L87.1768 12.8228V21.7784C87.1768 22.1076 87.2329 22.3398 87.3452 22.4762C87.4575 22.6127 87.6343 22.6803 87.8771 22.6803C87.9866 22.6803 88.141 22.6535 88.3417 22.6015L88.5494 23.8692C88.3824 23.9367 88.1789 23.9902 87.9389 24.0296C87.6989 24.0704 87.4715 24.0901 87.2568 24.0901C86.0329 24.0901 85.421 23.4246 85.421 22.0935Z" fill="black"/>
<path d="M89.8155 22.0935V12.9663L91.5712 12.8228V21.7784C91.5712 22.1076 91.6274 22.3398 91.7397 22.4762C91.8519 22.6127 92.0288 22.6803 92.2716 22.6803C92.3811 22.6803 92.5354 22.6535 92.7361 22.6015L92.9439 23.8692C92.7768 23.9367 92.5733 23.9902 92.3333 24.0296C92.0933 24.0704 91.866 24.0901 91.6512 24.0901C90.426 24.0901 89.8155 23.4246 89.8155 22.0935Z" fill="black"/>
<path d="M100.254 20.3115H95.2129C95.2943 21.9295 96.0635 22.7385 97.5203 22.7385C97.8824 22.7385 98.2515 22.6949 98.6304 22.6063C99.0094 22.5176 99.3715 22.3995 99.7196 22.2517L100.105 23.4617C99.2438 23.881 98.2754 24.0921 97.1989 24.0921C96.3806 24.0921 95.6901 23.9373 95.1273 23.6264C94.5659 23.3154 94.1435 22.8694 93.86 22.2869C93.5765 21.7044 93.4347 21.0037 93.4347 20.182C93.4347 19.328 93.5849 18.5935 93.8852 17.9773C94.1856 17.361 94.6024 16.8911 95.1385 16.5674C95.6733 16.2424 96.2922 16.0806 96.9912 16.0806C97.7196 16.0806 98.3287 16.2509 98.8157 16.5928C99.3027 16.9347 99.6648 17.3891 99.9006 17.9562C100.136 18.5246 100.254 19.1521 100.254 19.8387V20.3115ZM98.5322 19.1873C98.4999 18.571 98.3441 18.1095 98.0677 17.8014C97.7912 17.4933 97.422 17.3399 96.9603 17.3399C96.5126 17.3399 96.1406 17.4947 95.8431 17.8056C95.5456 18.1166 95.3519 18.5766 95.2607 19.1873H98.5322Z" fill="black"/>
<path d="M101.676 18.1624C101.676 17.7375 101.656 17.0903 101.618 16.2221H103.268C103.297 16.4374 103.324 16.6935 103.35 16.9918C103.376 17.29 103.394 17.5321 103.404 17.7178C103.609 17.3787 103.809 17.0945 104.007 16.8623C104.205 16.6302 104.437 16.4416 104.701 16.2967C104.964 16.1504 105.266 16.0786 105.603 16.0786C105.874 16.0786 106.108 16.1068 106.303 16.1644L106.082 17.6967C105.91 17.6446 105.719 17.6179 105.51 17.6179C105.096 17.6179 104.734 17.7248 104.425 17.9359C104.115 18.1483 103.785 18.4973 103.433 18.9841V23.9452H101.676V18.1624Z" fill="black"/>
<path d="M107.361 27.1087C107.105 27.0637 106.893 27.0116 106.726 26.9553L107.047 25.6665C107.166 25.7003 107.316 25.7312 107.498 25.7636C107.679 25.7946 107.85 25.81 108.011 25.81C108.792 25.81 109.377 25.3063 109.768 24.2989L109.882 24.0133L107.04 16.2241H108.932L110.361 20.5774C110.594 21.3217 110.744 21.8929 110.811 22.2883C110.945 21.7297 111.102 21.1712 111.283 20.6126L112.733 16.2241H114.511L111.676 24.0485C111.409 24.7886 111.121 25.3851 110.811 25.8382C110.501 26.2912 110.136 26.6275 109.715 26.847C109.293 27.0665 108.785 27.1762 108.191 27.1762C107.895 27.1762 107.62 27.1537 107.361 27.1087Z" fill="black"/>
</svg>
