<svg width="124" height="40" viewBox="0 0 124 40" fill="none" xmlns="http://www.w3.org/2000/svg">
<rect width="124" height="40" rx="8" fill="white"/>
<path d="M11.8313 9.24136C11.5809 9.50902 11.4341 9.92348 11.4341 10.4502V29.5495C11.4341 30.0849 11.5809 30.4993 11.8313 30.7584L11.8917 30.8188L22.5898 20.1294V19.9998V19.8703L11.8917 9.18091L11.8313 9.24136Z" fill="url(#paint0_linear_158_14310)"/>
<path d="M26.1563 23.696L22.5898 20.1294V19.9998V19.8703L26.1563 16.3049L26.234 16.3481L30.4563 18.7485C31.6651 19.4306 31.6651 20.5531 30.4563 21.2438L26.234 23.6442L26.1563 23.696Z" fill="url(#paint1_linear_158_14310)"/>
<path d="M26.234 23.6442L22.591 20.0002L11.8325 30.7587C12.2297 31.1818 12.8859 31.2336 13.6285 30.8105L26.234 23.6442Z" fill="url(#paint2_linear_158_14310)"/>
<path d="M26.2336 16.3559L13.6187 9.18933C12.8762 8.76624 12.2199 8.81805 11.8228 9.24114L22.5898 19.9998L26.2336 16.3559Z" fill="url(#paint3_linear_158_14310)"/>
<path d="M62.7623 16.7059C60.7332 16.7059 59.0754 18.2515 59.0754 20.3755C59.0754 22.491 60.7332 24.0452 62.7623 24.0452C64.7913 24.0452 66.4492 22.491 66.4492 20.3755C66.4492 18.2515 64.7913 16.7059 62.7623 16.7059ZM62.7623 22.6032C61.6484 22.6032 60.69 21.688 60.69 20.3755C60.69 19.0545 61.6484 18.1479 62.7623 18.1479C63.8761 18.1479 64.8345 19.0545 64.8345 20.3755C64.8345 21.688 63.8675 22.6032 62.7623 22.6032ZM54.715 16.7059C52.6859 16.7059 51.0281 18.2515 51.0281 20.3755C51.0281 22.491 52.6859 24.0452 54.715 24.0452C56.7441 24.0452 58.4019 22.491 58.4019 20.3755C58.4019 18.2515 56.7441 16.7059 54.715 16.7059ZM54.715 22.6032C53.6011 22.6032 52.6427 21.688 52.6427 20.3755C52.6427 19.0545 53.6011 18.1479 54.715 18.1479C55.8288 18.1479 56.7872 19.0545 56.7872 20.3755C56.7872 21.688 55.8288 22.6032 54.715 22.6032ZM45.148 17.837V19.3912H48.8781C48.7658 20.2633 48.4723 20.9109 48.0319 21.3512C47.4879 21.8952 46.6418 22.491 45.1566 22.491C42.8599 22.491 41.0639 20.6432 41.0639 18.3464C41.0639 16.0497 42.8599 14.2019 45.1566 14.2019C46.3914 14.2019 47.298 14.6854 47.9628 15.3158L49.0594 14.2192C48.1269 13.3298 46.8922 12.6477 45.148 12.6477C42.0051 12.6477 39.3629 15.2035 39.3629 18.3551C39.3629 21.498 42.0051 24.0624 45.148 24.0624C46.849 24.0624 48.1269 23.5098 49.1285 22.4651C50.156 21.4376 50.4754 19.987 50.4754 18.8213C50.4754 18.4587 50.4495 18.1219 50.3891 17.8456H45.148V17.837ZM84.2706 19.0458C83.9684 18.2256 83.0359 16.7059 81.1277 16.7059C79.2368 16.7059 77.6653 18.191 77.6653 20.3755C77.6653 22.4305 79.2195 24.0452 81.309 24.0452C82.9927 24.0452 83.9684 23.0177 84.3656 22.4219L83.1136 21.5844C82.6992 22.1974 82.1293 22.6032 81.309 22.6032C80.4888 22.6032 79.9016 22.2233 79.5303 21.4894L84.4433 19.4603L84.2706 19.0458ZM79.2627 20.2719C79.2195 18.8559 80.3592 18.1306 81.1795 18.1306C81.8185 18.1306 82.3624 18.4501 82.5438 18.9077L79.2627 20.2719ZM75.2736 23.8293H76.8882V13.0363H75.2736V23.8293ZM72.6314 17.5262H72.571C72.2083 17.0945 71.5176 16.7059 70.6369 16.7059C68.7977 16.7059 67.114 18.3205 67.114 20.3928C67.114 22.4478 68.7977 24.0538 70.6369 24.0538C71.5089 24.0538 72.2083 23.6653 72.571 23.2163H72.6228V23.743C72.6228 25.1504 71.8716 25.9016 70.6628 25.9016C69.6784 25.9016 69.0654 25.1936 68.815 24.5978L67.4076 25.1849C67.8134 26.1606 68.8841 27.3522 70.6628 27.3522C72.5537 27.3522 74.1511 26.2383 74.1511 23.5271V16.9304H72.6228V17.5262H72.6314ZM70.775 22.6032C69.6612 22.6032 68.7287 21.6707 68.7287 20.3928C68.7287 19.0976 69.6612 18.1565 70.775 18.1565C71.8716 18.1565 72.735 19.1063 72.735 20.3928C72.7437 21.6707 71.8802 22.6032 70.775 22.6032ZM91.8344 13.0363H87.9748V23.8293H89.5895V19.7366H91.843C93.6304 19.7366 95.3832 18.4414 95.3832 16.3864C95.3832 14.3314 93.6131 13.0363 91.8344 13.0363ZM91.8689 18.2342H89.5808V14.53H91.8689C93.0778 14.53 93.7599 15.5316 93.7599 16.3778C93.7599 17.224 93.0778 18.2342 91.8689 18.2342ZM101.833 16.6886C100.667 16.6886 99.4586 17.2067 98.9578 18.3378L100.391 18.9336C100.693 18.3378 101.263 18.1392 101.859 18.1392C102.688 18.1392 103.543 18.64 103.551 19.5294V19.6416C103.258 19.4776 102.636 19.2272 101.868 19.2272C100.322 19.2272 98.7592 20.0733 98.7592 21.6534C98.7592 23.0954 100.02 24.0279 101.436 24.0279C102.515 24.0279 103.12 23.5444 103.491 22.9745H103.543V23.812H105.097V19.6761C105.106 17.7593 103.672 16.6886 101.833 16.6886ZM101.635 22.6032C101.108 22.6032 100.374 22.3356 100.374 21.688C100.374 20.8591 101.289 20.5396 102.084 20.5396C102.792 20.5396 103.128 20.695 103.551 20.9022C103.431 21.8952 102.567 22.6032 101.635 22.6032ZM110.77 16.9218L108.922 21.6016H108.87L106.953 16.9218H105.218L108.093 23.4667L106.453 27.1018H108.136L112.566 16.9218H110.77ZM96.2639 23.8293H97.8785V13.0363H96.2639V23.8293Z" fill="black"/>
<path opacity="0.2" d="M27.3192 23.4941L14.9747 30.2783C14.2861 30.6566 13.6654 30.6319 13.2744 30.2865L13.2148 30.3441L13.2744 30.4017C13.674 30.747 14.2861 30.7718 14.9747 30.3935L27.3958 23.5681L27.3192 23.4941Z" fill="black"/>
<defs>
<linearGradient id="paint0_linear_158_14310" x1="29.6658" y1="9.99526" x2="16.8189" y2="32.3578" gradientUnits="userSpaceOnUse">
<stop stop-color="#00A0FF"/>
<stop offset="0.00657445" stop-color="#00A1FF"/>
<stop offset="0.2601" stop-color="#00BEFF"/>
<stop offset="0.5122" stop-color="#00D2FF"/>
<stop offset="0.7604" stop-color="#00DFFF"/>
<stop offset="1" stop-color="#00E3FF"/>
</linearGradient>
<linearGradient id="paint1_linear_158_14310" x1="32.8818" y1="20.0037" x2="-14.5803" y2="20.0037" gradientUnits="userSpaceOnUse">
<stop stop-color="#FFE000"/>
<stop offset="0.4087" stop-color="#FFBD00"/>
<stop offset="0.7754" stop-color="#FFA500"/>
<stop offset="1" stop-color="#FF9C00"/>
</linearGradient>
<linearGradient id="paint2_linear_158_14310" x1="28.6233" y1="12.8618" x2="-8.15481" y2="38.3065" gradientUnits="userSpaceOnUse">
<stop stop-color="#FF3A44"/>
<stop offset="1" stop-color="#C31162"/>
</linearGradient>
<linearGradient id="paint3_linear_158_14310" x1="9.11779" y1="2.88291" x2="17.8927" y2="11.6577" gradientUnits="userSpaceOnUse">
<stop stop-color="#32A071"/>
<stop offset="0.0685" stop-color="#2DA771"/>
<stop offset="0.4762" stop-color="#15CF74"/>
<stop offset="0.8009" stop-color="#06E775"/>
<stop offset="1" stop-color="#00F076"/>
</linearGradient>
</defs>
</svg>
