<svg width="24" height="24" viewBox="0 0 24 24" fill="none" xmlns="http://www.w3.org/2000/svg">
<rect width="24" height="24" rx="4" fill="#A3A3A3"/>
<path d="M12 6C13.6302 6 13.8336 6.006 14.4732 6.036C15.1122 6.066 15.5472 6.1662 15.93 6.315C16.326 6.4674 16.6596 6.6738 16.9932 7.0068C17.2983 7.30674 17.5344 7.66955 17.685 8.07C17.8332 8.4522 17.934 8.8878 17.964 9.5268C17.9922 10.1664 18 10.3698 18 12C18 13.6302 17.994 13.8336 17.964 14.4732C17.934 15.1122 17.8332 15.5472 17.685 15.93C17.5348 16.3307 17.2987 16.6936 16.9932 16.9932C16.6932 17.2982 16.3304 17.5343 15.93 17.685C15.5478 17.8332 15.1122 17.934 14.4732 17.964C13.8336 17.9922 13.6302 18 12 18C10.3698 18 10.1664 17.994 9.5268 17.964C8.8878 17.934 8.4528 17.8332 8.07 17.685C7.6694 17.5347 7.30652 17.2986 7.0068 16.9932C6.70164 16.6933 6.46556 16.3305 6.315 15.93C6.1662 15.5478 6.066 15.1122 6.036 14.4732C6.0078 13.8336 6 13.6302 6 12C6 10.3698 6.006 10.1664 6.036 9.5268C6.066 8.8872 6.1662 8.4528 6.315 8.07C6.46514 7.66931 6.70128 7.30639 7.0068 7.0068C7.3066 6.70154 7.66946 6.46544 8.07 6.315C8.4528 6.1662 8.8872 6.066 9.5268 6.036C10.1664 6.0078 10.3698 6 12 6ZM12 9C11.2044 9 10.4413 9.31607 9.87868 9.87868C9.31607 10.4413 9 11.2044 9 12C9 12.7956 9.31607 13.5587 9.87868 14.1213C10.4413 14.6839 11.2044 15 12 15C12.7956 15 13.5587 14.6839 14.1213 14.1213C14.6839 13.5587 15 12.7956 15 12C15 11.2044 14.6839 10.4413 14.1213 9.87868C13.5587 9.31607 12.7956 9 12 9ZM15.9 8.85C15.9 8.65109 15.821 8.46032 15.6803 8.31967C15.5397 8.17902 15.3489 8.1 15.15 8.1C14.9511 8.1 14.7603 8.17902 14.6197 8.31967C14.479 8.46032 14.4 8.65109 14.4 8.85C14.4 9.04891 14.479 9.23968 14.6197 9.38033C14.7603 9.52098 14.9511 9.6 15.15 9.6C15.3489 9.6 15.5397 9.52098 15.6803 9.38033C15.821 9.23968 15.9 9.04891 15.9 8.85ZM12 10.2C12.4774 10.2 12.9352 10.3896 13.2728 10.7272C13.6104 11.0648 13.8 11.5226 13.8 12C13.8 12.4774 13.6104 12.9352 13.2728 13.2728C12.9352 13.6104 12.4774 13.8 12 13.8C11.5226 13.8 11.0648 13.6104 10.7272 13.2728C10.3896 12.9352 10.2 12.4774 10.2 12C10.2 11.5226 10.3896 11.0648 10.7272 10.7272C11.0648 10.3896 11.5226 10.2 12 10.2Z" fill="white"/>
</svg>
