<svg width="24" height="24" viewBox="0 0 24 24" fill="none" xmlns="http://www.w3.org/2000/svg">
<rect width="24" height="24" rx="4" fill="#A3A3A3"/>
<path d="M12 18C8.6862 18 6 15.3138 6 12C6 8.6862 8.6862 6 12 6C15.3138 6 18 8.6862 18 12C18 15.3138 15.3138 18 12 18ZM10.134 12.702L10.1418 12.6978L10.6638 14.4198C10.731 14.6064 10.8234 14.64 10.9356 14.6244C11.0484 14.6094 11.1078 14.5488 11.1816 14.478L11.8944 13.7892L13.4244 14.922C13.704 15.0762 13.905 14.9964 13.9746 14.6628L14.9688 9.9696C15.0786 9.5328 14.8866 9.3576 14.5476 9.4968L8.7078 11.7528C8.3094 11.9124 8.3118 12.1356 8.6358 12.2346L10.134 12.702Z" fill="white"/>
</svg>
